# AST/ASF file generated using VICON BodyLanguage
# -----------------------------------------------
:version 1.10
:name VICON
:units
  mass 1.0
  length 0.1
  angle deg
:documentation
   .ast/.asf automatically generated from VICON data using
   VICON BodyBuilder and BodyLanguage model FULLBODY5.MOD
:root
   order TX TY TZ RZ RY RX
   axis XYZ
   position 0 0 0  
   orientation 0 -0 0 
:bonedata
  begin
     id 1 
     name lhipjoint
     direction 0.969109 -0.218487 0.11442 
     length 0.544217 
     axis 0 -0 0  XYZ
  end
  begin
     id 2 
     name lfemur
     direction 0.173648 -0.984808 0  
     length 1.81499  
     axis 0 -0 10  XYZ
    dof rx ry rz
    limits (-180.0 180.0)
           (-180.0 180.0)
           (-180.0 180.0)
  end
  begin
     id 3 
     name ltibia
     direction 0.173515 -0.984831 0   
     length 1.55296   
     axis 0 -0 10   XYZ
    dof rx ry rz
    limits (-180.0 180.0)
           (-180.0 180.0)
           (-180.0 180.0)
  end
  begin
     id 4 
     name lfoot
     direction 7.36097e-012 -0.333012 0.942922   
     length 0.509062   
     axis -90 -1.73656e-015 10   XYZ
    dof rx ry rz
    limits (-180.0 180.0)
           (-180.0 180.0)
           (-180.0 180.0)
  end
  begin
     id 5 
     name ltoes
     direction 7.7847e-012 -4.42403e-011 1   
     length 0.249732   
     axis -90 -1.73656e-015 10   XYZ
    dof rx ry rz
    limits (-180.0 180.0)
           (-180.0 180.0)
           (-180.0 180.0)
  end
  begin
     id 6 
     name rhipjoint
     direction -0.966745 -0.226554 0.118645   
     length 0.524838  
     axis 0 -0 0  XYZ 
  end
  begin
     id 7 
     name rfemur
     direction -0.173648 -0.984808 0   
     length 1.84625   
     axis 0 -0 -10   XYZ
    dof rx ry rz
    limits (-180.0 180.0)
           (-180.0 180.0)
           (-180.0 180.0)
  end
  begin
     id 8 
     name rtibia
     direction -0.173714 -0.984796 0   
     length 1.577   
     axis 0 -0 -10   XYZ
    dof rx ry rz
    limits (-180.0 180.0)
           (-180.0 180.0)
           (-180.0 180.0)
 end
 begin
     id 9 
     name rfoot
     direction -0.0183819 -0.0406144 0.999006   
     length 0.490111  
     axis -90 1.73656e-015 -10   XYZ
    dof rx ry rz
    limits (-180.0 180.0)
           (-180.0 180.0)
           (-180.0 180.0)
  end
  begin
     id 10 
     name rtoes
     direction -7.79087e-012 -4.42375e-011 1   
     length 0.245053   
     axis -90 1.73656e-015 -10   XYZ
    dof rx ry rz
    limits (-180.0 180.0)
           (-180.0 180.0)
           (-180.0 180.0)
  end
  begin
     id 11 
     name lowerback
     direction -0.0664844 0.980601 0.184393   
     length 0.458979   
     axis 0 -0 0   XYZ
    dof rx ry rz
    limits (-180.0 180.0)
           (-180.0 180.0)
           (-180.0 180.0)
  end
  begin
     id 12 
     name upperback
     direction 0.0135995 0.999573 0.02588   
     length 0.463983   
     axis 0 -0 0   XYZ
    dof rx ry rz
    limits (-180.0 180.0)
           (-180.0 180.0)
           (-180.0 180.0)
  end
  begin
     id 13 
     name thorax
     direction 0.0468402 0.997311 -0.0563691   
     length 0.482746   
     axis 0 -0 0   XYZ
    dof rx ry rz
    limits (-180.0 180.0)
           (-180.0 180.0)
           (-180.0 180.0)
  end
  begin
     id 14 
     name lowerneck
     direction -0.00174311 0.988586 -0.150647   
     length 0.364383   
     axis 0 -0 0   XYZ
    dof rx ry rz
    limits (-180.0 180.0)
           (-180.0 180.0)
           (-180.0 180.0)
  end
  begin
     id 15 
     name upperneck
     direction -0.02653 0.999379 -0.0231908   
     length 0.361006   
     axis 0 -0 0   XYZ
    dof rx ry rz
    limits (-180.0 180.0)
           (-180.0 180.0)
           (-180.0 180.0)
  end
  begin
     id 16
     name head
     direction -0.00819207 0.999941 0.00714285  
     length 0.378714  
     axis 0 -0 0   XYZ
    dof rx ry rz
    limits (-180.0 180.0)
           (-180.0 180.0)
           (-180.0 180.0)
  end
  begin
     id 17 
     name lshoulderjoint
     direction 0.981627 -0.190809 0  
     length 0.612969  
     axis 0 -0 -11   XYZ
    dof rx ry rz
    limits (-180.0 180.0)
           (-180.0 180.0)
           (-180.0 180.0)
  end
  begin
     id 18 
     name lhumerus
     direction 0.48481 -0.87462 -9.72962e-027   
     length 1.19637   
     axis -180 5.14477e-009 -151   XYZ
    dof rx ry rz
    limits (-180.0 180.0)
           (-180.0 180.0)
           (-180.0 180.0)
  end
  begin
     id 19
     name lradius
     direction 0.48481 -0.87462 -2.35761e-026   
     length 0.637735   
     axis -180 5.14477e-009 -151   XYZ
    dof rx ry rz
    limits (-180.0 180.0)
           (-180.0 180.0)
           (-180.0 180.0)
  end
  begin
     id 20
     name lwrist
     direction 0.48481 -0.87462 -5.51856e-026   
     length 0.318868   
     axis -180 5.14477e-009 -151   XYZ
    dof rx ry rz
    limits (-180.0 180.0)
           (-180.0 180.0)
           (-180.0 180.0)
  end
  begin
     id 21 
     name lhand
     direction 0.477747 -0.861928 -0.169816   
     length 0.29526   
     axis -180 5.14477e-009 -151   XYZ
    dof rx ry rz
    limits (-180.0 180.0)
           (-180.0 180.0)
           (-180.0 180.0)
  end
  begin
     id 22 
     name rshoulderjoint
     direction -0.981627 -0.190809 0   
     length 0.572347  
     axis 0 -0 11   XYZ 
    dof rx ry rz
    limits (-180.0 180.0)
           (-180.0 180.0)
           (-180.0 180.0)
  end
  begin
     id 23 
     name rhumerus
     direction -0.48481 -0.87462 1.64836e-026  
     length 1.28846   
     axis 180 5.14477e-009 151   XYZ
    dof rx ry rz
    limits (-180.0 180.0)
           (-180.0 180.0)
           (-180.0 180.0)
  end
  begin
     id 24 
     name rradius
     direction -0.48481 -0.87462 2.86827e-026   
     length 0.62107   
     axis 180 5.14477e-009 151   XYZ
    dof rx ry rz
    limits (-180.0 180.0)
           (-180.0 180.0)
           (-180.0 180.0)
  end
  begin
     id 25 
     name rwrist
     direction -0.48481 -0.87462 5.20942e-026   
     length 0.310535   
     axis 180 5.14477e-009 151   XYZ
    dof rx ry rz
    limits (-180.0 180.0)
           (-180.0 180.0)
           (-180.0 180.0)
  end
  begin
     id 26
     name rhand
     direction -0.477664 -0.861515 -0.172133   
     length 0.291321   
     axis 180 5.14477e-009 151   XYZ
    dof rx ry rz
    limits (-180.0 180.0)
           (-180.0 180.0)
           (-180.0 180.0)
  end
:hierarchy
  begin
    root lhipjoint rhipjoint lowerback 
    lhipjoint lfemur
    lfemur ltibia
    ltibia lfoot
    lfoot ltoes
    rhipjoint rfemur
    rfemur rtibia
    rtibia rfoot
    rfoot rtoes
    lowerback upperback
    upperback thorax
    thorax lowerneck lshoulderjoint rshoulderjoint
    lowerneck upperneck
    upperneck head
    lshoulderjoint lhumerus
    lhumerus lradius
    lradius lwrist
    lwrist lhand
    rshoulderjoint rhumerus
    rhumerus rradius
    rradius rwrist
    rwrist rhand
  end

:FULLY-SPECIFIED
:DEGREES
486
root 10.3317 3.69102 -0.668468 89.1304 -74.8092 85.7796
lowerback -20.8093 -0.25516 -7.49011
upperback -4.55448 0.923468 0.621291
thorax 6.50044 0.204912 5.17773
lowerneck 17.0161 -2.81713 -0.379397
upperneck 13.5249 -4.44363 -3.20332
head 1.45696 -2.58858 -0.794615
rshoulderjoint -0.27732 0.500516 -39.9899
rhumerus 154.644 -57.462 -160.517
rradius 35.0162 -3.49861e-014 -2.88238e-014
rwrist -9.4695e-014 -6.81914 -2.48249e-014
rhand 11.9805 6.32149 -22.5985
lshoulderjoint -1.15754 -2.19468 38.8175
lhumerus 135.191 75.615 149.563
lradius 34.8755 1.59028e-014 4.63168e-014
lwrist -4.62792e-014 2.9595 5.99141e-014
lhand 29.5643 -2.95634 4.26255
rfemur -16.7334 14.6384 9.43522
rtibia 8.69082 -6.36111e-014 -1.43125e-014
rfoot -170.608 -37.3416 160.545
rtoes 2.18663e-015 -5.05716e-013 1.97791e-014
lfemur -24.6532 -13.666 -9.45221
ltibia 24.3305 5.08889e-014 2.127e-014
lfoot -12.6552 9.51412 12.0287
ltoes 9.54166e-015 -1.57319e-013 -2.17669e-014
487
root 10.3383 3.69226 -0.666657 89.1965 -74.728 85.7543
lowerback -21.0456 -0.266101 -7.54554
upperback -4.54284 0.941729 0.574284
thorax 6.63453 0.205632 5.16794
lowerneck 16.8271 -2.8483 -0.376935
upperneck 13.3071 -4.46638 -3.16911
head 1.4139 -2.58961 -0.782305
rshoulderjoint -0.291628 0.528858 -39.8742
rhumerus 155.18 -57.4752 -160.834
rradius 35.0017 -8.90555e-014 -3.16068e-014
rwrist 8.50693e-015 -6.72772 6.08495e-014
rhand 12.0093 6.21341 -22.4412
lshoulderjoint -1.14788 -2.17155 38.8697
lhumerus 135.367 75.6605 149.677
lradius 34.8647 7.31528e-014 8.40859e-014
lwrist -8.80716e-015 2.85589 5.31415e-014
lhand 29.5454 -2.85368 4.13761
rfemur -16.8277 14.6233 9.26119
rtibia 8.47575 -3.18055e-015 7.95139e-016
rfoot -170.67 -37.3179 160.594
rtoes -6.58971e-014 4.87286e-014 5.34731e-014
lfemur -24.1568 -13.7077 -9.66335
ltibia 23.8701 6.36111e-015 -4.77083e-015
lfoot -12.7921 9.55956 11.7994
ltoes 5.52621e-014 1.11133e-014 3.27995e-015
488
root 10.3448 3.6935 -0.664864 89.2413 -74.6776 85.7728
lowerback -21.1503 -0.271018 -7.55026
upperback -4.60027 0.938866 0.553421
thorax 6.62697 0.203909 5.14832
lowerneck 16.7256 -2.86668 -0.325865
upperneck 13.1005 -4.46659 -3.19879
head 1.35933 -2.57908 -0.79763
rshoulderjoint -0.233393 0.421215 -39.9909
rhumerus 155.259 -57.6015 -161.053
rradius 34.9754 2.16278e-013 9.40251e-014
rwrist -8.10679e-015 -6.73897 -9.36784e-014
rhand 12.1188 6.2516 -22.2646
lshoulderjoint -1.15017 -2.17172 38.9151
lhumerus 135.797 75.8326 150.048
lradius 34.864 -1.28812e-013 -1.2106e-013
lwrist 8.40366e-014 2.79239 -5.39347e-014
lhand 29.5169 -2.78902 3.95721
rfemur -16.9327 14.6222 9.16493
rtibia 8.34482 -1.59028e-014 -1.51076e-014
rfoot -170.718 -37.288 160.643
rtoes 4.1546e-014 -1.49753e-013 -2.3556e-014
lfemur -23.6303 -13.668 -9.83453
ltibia 23.3307 2.54444e-014 6.55989e-015
lfoot -12.867 9.52183 11.6318
ltoes -7.196e-014 -2.88176e-014 4.86029e-014
489
root 10.3513 3.69436 -0.662737 89.1933 -74.6424 85.7114
lowerback -21.2283 -0.263778 -7.50784
upperback -4.64774 0.943256 0.501267
thorax 6.6172 0.206805 5.06878
lowerneck 16.6241 -2.90304 -0.196522
upperneck 12.8702 -4.47628 -3.24697
head 1.29495 -2.56898 -0.830786
rshoulderjoint -0.211056 0.382454 -39.8922
rhumerus 155.583 -57.7048 -161.265
rradius 34.9481 -6.99722e-014 -5.80451e-014
rwrist -5.32417e-014 -6.71277 -2.32182e-014
rhand 12.237 6.23917 -22.0795
lshoulderjoint -1.16017 -2.18472 38.9791
lhumerus 136.236 75.9898 150.4
lradius 34.8837 1.76521e-013 1.02772e-013
lwrist 3.05702e-014 2.61927 -3.88035e-014
lhand 29.4796 -2.61637 3.71719
rfemur -17.0478 14.5984 9.08194
rtibia 8.28865 -2.54444e-014 -3.97569e-015
rfoot -170.731 -37.2345 160.693
rtoes 1.46107e-013 2.37051e-014 -1.00287e-013
lfemur -23.0883 -13.5838 -10.0117
ltibia 22.7329 1.90833e-014 1.39149e-014
lfoot -12.8846 9.55749 11.4969
ltoes -1.41535e-013 1.97511e-014 4.21423e-014
490
root 10.3579 3.69516 -0.660413 89.1646 -74.6224 85.6119
lowerback -21.2962 -0.284286 -7.58234
upperback -4.66294 0.934902 0.511353
thorax 6.63503 0.200317 5.12159
lowerneck 16.4818 -2.9106 -0.274482
upperneck 12.6186 -4.48093 -3.24402
head 1.2358 -2.5642 -0.81452
rshoulderjoint -0.206378 0.373015 -39.9548
rhumerus 156.058 -57.7626 -161.64
rradius 34.9168 2.54444e-014 -8.74653e-015
rwrist -1.44526e-013 -6.75527 -5.9652e-014
rhand 12.341 6.27184 -21.9415
lshoulderjoint -1.17308 -2.21465 38.9191
lhumerus 136.798 76.0922 150.878
lradius 34.9193 4.45278e-014 3.58806e-014
lwrist 1.97023e-013 2.24971 8.95221e-016
lhand 29.4309 -2.25087 3.43841
rfemur -17.1759 14.5632 8.94193
rtibia 8.29034 -1.59028e-014 -3.97569e-015
rfoot -170.707 -37.1646 160.735
rtoes 5.42682e-014 -3.17419e-014 -2.98177e-014
lfemur -22.5283 -13.4563 -10.2642
ltibia 22.0517 1.90833e-014 5.1684e-015
lfoot -12.7939 9.40133 11.4301
ltoes -4.29375e-014 -1.52691e-014 9.93923e-016
491
root 10.3641 3.69573 -0.657808 89.0756 -74.631 85.5243
lowerback -21.2107 -0.269153 -7.43965
upperback -4.77233 0.914766 0.390811
thorax 6.47876 0.200199 4.89885
lowerneck 16.4411 -2.91795 -0.051426
upperneck 12.4257 -4.44531 -3.26166
head 1.17426 -2.53019 -0.854992
rshoulderjoint -0.245725 0.447759 -39.7578
rhumerus 156.563 -57.9569 -162.028
rradius 34.8716 1.90833e-014 6.2816e-014
rwrist 1.60151e-013 -6.79095 1.04299e-013
rhand 12.4602 6.3208 -21.8056
lshoulderjoint -1.13806 -2.12796 39.1471
lhumerus 137.183 76.3557 151.225
lradius 34.9503 -6.67916e-014 -1.61016e-014
lwrist -5.70294e-014 2.15472 5.0527e-014
lhand 29.3489 -2.15345 3.18781
rfemur -17.2739 14.5326 8.88269
rtibia 8.31937 1.11319e-014 -2.38542e-015
rfoot -170.615 -37.0881 160.702
rtoes -9.74045e-015 6.7416e-014 -1.02374e-014
lfemur -21.9266 -13.2806 -10.4632
ltibia 21.3032 -3.18055e-015 -3.97569e-015
lfoot -12.6255 9.31528 11.3769
ltoes 4.73108e-014 1.89777e-014 2.00773e-014
